<?xml version="1.0" encoding="UTF-8" standalone="no"?>
<svg
   xmlns:dc="http://purl.org/dc/elements/1.1/"
   xmlns:cc="http://creativecommons.org/ns#"
   xmlns:rdf="http://www.w3.org/1999/02/22-rdf-syntax-ns#"
   xmlns:svg="http://www.w3.org/2000/svg"
   xmlns="http://www.w3.org/2000/svg"
   xmlns:sodipodi="http://sodipodi.sourceforge.net/DTD/sodipodi-0.dtd"
   xmlns:inkscape="http://www.inkscape.org/namespaces/inkscape"
   width="219.20842mm"
   height="245.14539mm"
   viewBox="0 0 219.20842 245.14539"
   version="1.1"
   id="svg8"
   inkscape:version="1.0.1 (3bc2e813f5, 2020-09-07)"
   sodipodi:docname="GameTimerPro - Patola MP008.svg">
  <defs
     id="defs2" />
  <sodipodi:namedview
     id="base"
     pagecolor="#ffffff"
     bordercolor="#666666"
     borderopacity="1.0"
     inkscape:pageopacity="0.0"
     inkscape:pageshadow="2"
     inkscape:zoom="0.65294104"
     inkscape:cx="159.96347"
     inkscape:cy="393.84554"
     inkscape:document-units="mm"
     inkscape:current-layer="layer1"
     inkscape:document-rotation="0"
     showgrid="false"
     showguides="true"
     inkscape:guide-bbox="true"
     inkscape:window-width="1920"
     inkscape:window-height="1001"
     inkscape:window-x="-9"
     inkscape:window-y="-9"
     inkscape:window-maximized="1"
     fit-margin-top="5"
     fit-margin-left="5"
     fit-margin-bottom="5"
     fit-margin-right="5"
     inkscape:object-nodes="false" />
  <metadata
     id="metadata5">
    <rdf:RDF>
      <cc:Work
         rdf:about="">
        <dc:format>image/svg+xml</dc:format>
        <dc:type
           rdf:resource="http://purl.org/dc/dcmitype/StillImage" />
        <dc:title></dc:title>
      </cc:Work>
    </rdf:RDF>
  </metadata>
  <g
     inkscape:label="Layer 1"
     inkscape:groupmode="layer"
     id="layer1"
     transform="translate(2.5792005,57.153794)">
    <g
       id="g2448"
       transform="translate(10.583333,21.166667)">
      <g
         id="g2373">
        <path
           id="rect894"
           style="fill:none;stroke:#000000;stroke-width:0.377953;stroke-linecap:round;stroke-linejoin:round;stroke-miterlimit:4;stroke-dasharray:none"
           d="m 141.40625,27.087891 c -31.40787,0 -56.693359,25.285485 -56.693359,56.693359 v 241.88867 c 0,31.40788 25.285489,56.69336 56.693359,56.69336 h 445.98437 c 31.40788,0 56.69141,-25.28548 56.69141,-56.69336 V 83.78125 c 0,-31.407874 -25.28353,-56.693359 -56.69141,-56.693359 z m -23.15039,25.984375 h 11.33789 23.00781 v 11.33789 H 129.59375 V 81.476562 H 118.25586 V 64.410156 Z m 82.25195,0 h 46.01563 v 11.33789 h -46.01563 z m 93.92188,0 h 46.01562 v 11.33789 h -46.01562 z m 93.91992,0 h 46.01562 v 11.33789 h -46.01562 z m 93.92187,0 h 46.01563 v 11.33789 h -46.01563 z m 93.92188,0 h 23.00781 11.33789 v 11.33789 17.066406 H 599.20117 V 64.410156 h -23.00781 z m -457.9375,64.429684 h 11.33789 v 34.13282 h -11.33789 z m 480.94531,0 h 11.33789 v 34.13282 H 599.20117 Z M 118.25586,187.6582 h 11.33789 v 34.13477 h -11.33789 z m 480.94531,0 h 11.33789 v 34.13477 h -11.33789 z m -480.94531,70.15821 h 11.33789 v 34.13281 h -11.33789 z m 480.94531,0 h 11.33789 v 34.13281 h -11.33789 z m -480.94531,70.15625 h 11.33789 v 17.06836 h 23.00781 v 11.33789 h -23.00781 -11.33789 v -11.33789 z m 480.94531,0 h 11.33789 v 17.06836 11.33789 h -11.33789 -23.00781 v -11.33789 h 23.00781 z m -398.69336,17.06836 h 46.01563 v 11.33789 h -46.01563 z m 93.92188,0 h 46.01562 v 11.33789 h -46.01562 z m 93.91992,0 h 46.01562 v 11.33789 h -46.01562 z m 93.92187,0 h 46.01563 v 11.33789 h -46.01563 z"
           transform="scale(0.26458333)" />
        <g
           id="g1270"
           transform="translate(2.2493209,-89.078531)"
           style="stroke-width:0.1;stroke-miterlimit:4;stroke-dasharray:none">
          <circle
             style="fill:none;stroke:#000000;stroke-width:0.1;stroke-miterlimit:4;stroke-dasharray:none"
             id="path46"
             cx="87.192596"
             cy="121.54965"
             r="1.8583801" />
          <circle
             style="fill:none;stroke:#000000;stroke-width:0.1;stroke-miterlimit:4;stroke-dasharray:none"
             id="path46-2"
             cx="99.017776"
             cy="121.54965"
             r="1.8583801" />
          <circle
             style="fill:none;stroke:#000000;stroke-width:0.1;stroke-miterlimit:4;stroke-dasharray:none"
             id="path46-2-8"
             cx="110.84297"
             cy="121.54965"
             r="1.8583801" />
          <rect
             style="fill:none;stroke:#000000;stroke-width:0.1;stroke-miterlimit:4;stroke-dasharray:none"
             id="rect80"
             width="53.578125"
             height="19.84375"
             x="61.988091"
             y="128.88986" />
          <ellipse
             style="fill:none;stroke:#000000;stroke-width:0.1;stroke-linecap:round;stroke-linejoin:round;stroke-miterlimit:4;stroke-dasharray:none"
             id="path33"
             cx="49.499367"
             cy="124.08105"
             rx="6.375"
             ry="6.3750038" />
          <g
             id="g996"
             transform="translate(0,4.9112594)"
             style="stroke-width:0.1;stroke-miterlimit:4;stroke-dasharray:none">
            <g
               id="g1022"
               transform="translate(0,2.645835)"
               style="stroke-width:0.1;stroke-miterlimit:4;stroke-dasharray:none">
              <g
                 id="g956"
                 transform="translate(-3.5580114,9.8438451)"
                 style="stroke-width:0.1;stroke-miterlimit:4;stroke-dasharray:none">
                <g
                   id="g932"
                   transform="translate(0,-5.2916667)"
                   style="stroke-width:0.1;stroke-miterlimit:4;stroke-dasharray:none">
                  <g
                     id="g888"
                     transform="translate(0,31.750001)"
                     style="stroke-width:0.1;stroke-miterlimit:4;stroke-dasharray:none">
                    <g
                       id="g884"
                       transform="translate(-5.2916667)"
                       style="stroke-width:0.1;stroke-miterlimit:4;stroke-dasharray:none">
                      <circle
                         style="fill:none;stroke:#000000;stroke-width:0.1;stroke-linecap:round;stroke-linejoin:round;stroke-miterlimit:4;stroke-dasharray:none"
                         id="circle880"
                         cx="135.34894"
                         cy="124.80902"
                         r="2.5" />
                      <rect
                         style="fill:none;stroke:#000000;stroke-width:0.1;stroke-linecap:round;stroke-linejoin:round;stroke-miterlimit:4;stroke-dasharray:none"
                         id="rect882"
                         width="12.580736"
                         height="12.700736"
                         x="129.05856"
                         y="118.45866" />
                    </g>
                    <circle
                       style="fill:none;stroke:#000000;stroke-width:0.1;stroke-linecap:round;stroke-linejoin:round;stroke-miterlimit:4;stroke-dasharray:none"
                       id="circle886"
                       cx="130.05727"
                       cy="113.44782"
                       r="2.5" />
                  </g>
                  <g
                     id="g898"
                     transform="translate(21.166667,31.750001)"
                     style="stroke-width:0.1;stroke-miterlimit:4;stroke-dasharray:none">
                    <g
                       id="g894"
                       transform="translate(-5.2916667)"
                       style="stroke-width:0.1;stroke-miterlimit:4;stroke-dasharray:none">
                      <circle
                         style="fill:none;stroke:#000000;stroke-width:0.1;stroke-linecap:round;stroke-linejoin:round;stroke-miterlimit:4;stroke-dasharray:none"
                         id="circle890"
                         cx="135.34894"
                         cy="124.80902"
                         r="2.5" />
                      <rect
                         style="fill:none;stroke:#000000;stroke-width:0.1;stroke-linecap:round;stroke-linejoin:round;stroke-miterlimit:4;stroke-dasharray:none"
                         id="rect892"
                         width="12.580736"
                         height="12.700736"
                         x="129.05856"
                         y="118.45866" />
                    </g>
                    <circle
                       style="fill:none;stroke:#000000;stroke-width:0.1;stroke-linecap:round;stroke-linejoin:round;stroke-miterlimit:4;stroke-dasharray:none"
                       id="circle896"
                       cx="130.05727"
                       cy="113.44782"
                       r="2.5" />
                  </g>
                </g>
                <g
                   id="g920"
                   style="stroke-width:0.1;stroke-miterlimit:4;stroke-dasharray:none">
                  <g
                     id="g878"
                     style="stroke-width:0.1;stroke-miterlimit:4;stroke-dasharray:none">
                    <g
                       id="g858"
                       transform="translate(-5.2916667)"
                       style="stroke-width:0.1;stroke-miterlimit:4;stroke-dasharray:none">
                      <circle
                         style="fill:none;stroke:#000000;stroke-width:0.1;stroke-linecap:round;stroke-linejoin:round;stroke-miterlimit:4;stroke-dasharray:none"
                         id="circle854"
                         cx="135.34894"
                         cy="124.80902"
                         r="2.5" />
                      <rect
                         style="fill:none;stroke:#000000;stroke-width:0.1;stroke-linecap:round;stroke-linejoin:round;stroke-miterlimit:4;stroke-dasharray:none"
                         id="rect856"
                         width="12.580736"
                         height="12.700736"
                         x="129.05856"
                         y="118.45866" />
                    </g>
                    <circle
                       style="fill:none;stroke:#000000;stroke-width:0.1;stroke-linecap:round;stroke-linejoin:round;stroke-miterlimit:4;stroke-dasharray:none"
                       id="path872"
                       cx="130.05727"
                       cy="113.44782"
                       r="2.5" />
                  </g>
                  <g
                     id="g908"
                     transform="translate(21.166667)"
                     style="stroke-width:0.1;stroke-miterlimit:4;stroke-dasharray:none">
                    <g
                       id="g904"
                       transform="translate(-5.2916667)"
                       style="stroke-width:0.1;stroke-miterlimit:4;stroke-dasharray:none">
                      <circle
                         style="fill:none;stroke:#000000;stroke-width:0.1;stroke-linecap:round;stroke-linejoin:round;stroke-miterlimit:4;stroke-dasharray:none"
                         id="circle900"
                         cx="135.34894"
                         cy="124.80902"
                         r="2.5" />
                      <rect
                         style="fill:none;stroke:#000000;stroke-width:0.1;stroke-linecap:round;stroke-linejoin:round;stroke-miterlimit:4;stroke-dasharray:none"
                         id="rect902"
                         width="12.580736"
                         height="12.700736"
                         x="129.05856"
                         y="118.45866" />
                    </g>
                    <circle
                       style="fill:none;stroke:#000000;stroke-width:0.1;stroke-linecap:round;stroke-linejoin:round;stroke-miterlimit:4;stroke-dasharray:none"
                       id="circle906"
                       cx="130.05727"
                       cy="113.44782"
                       r="2.5" />
                  </g>
                </g>
              </g>
              <path
                 id="path958"
                 style="fill:none;stroke:#000000;stroke-width:0.1;stroke-linecap:round;stroke-linejoin:round;stroke-miterlimit:4;stroke-dasharray:none"
                 d="m 137.08259,105.67675 a 5.5184603,5.5184603 0 0 0 -4.94957,3.14451 v 4.74803 a 5.5184603,5.5184603 0 0 0 4.98161,3.14451 5.5184603,5.5184603 0 0 0 4.91753,-3.0148 v -5.00693 a 5.5184603,5.5184603 0 0 0 -4.91753,-3.01532 5.5184603,5.5184603 0 0 0 -0.032,0 z" />
            </g>
            <ellipse
               style="fill:none;stroke:#000000;stroke-width:0.1;stroke-linecap:round;stroke-linejoin:round;stroke-miterlimit:4;stroke-dasharray:none"
               id="path1024"
               cx="49.53363"
               cy="128.56934"
               rx="0.8700726"
               ry="0.87007272" />
            <ellipse
               style="fill:none;stroke:#000000;stroke-width:0.1;stroke-linecap:round;stroke-linejoin:round;stroke-miterlimit:4;stroke-dasharray:none"
               id="ellipse1033"
               cx="49.53363"
               cy="131.21521"
               rx="0.8700726"
               ry="0.87007272" />
            <ellipse
               style="fill:none;stroke:#000000;stroke-width:0.1;stroke-linecap:round;stroke-linejoin:round;stroke-miterlimit:4;stroke-dasharray:none"
               id="ellipse1035"
               cx="49.53363"
               cy="133.8611"
               rx="0.8700726"
               ry="0.87007272" />
            <ellipse
               style="fill:none;stroke:#000000;stroke-width:0.1;stroke-linecap:round;stroke-linejoin:round;stroke-miterlimit:4;stroke-dasharray:none"
               id="ellipse1037"
               cx="49.53363"
               cy="136.50696"
               rx="0.8700726"
               ry="0.87007272" />
            <ellipse
               style="fill:none;stroke:#000000;stroke-width:0.1;stroke-linecap:round;stroke-linejoin:round;stroke-miterlimit:4;stroke-dasharray:none"
               id="ellipse1039"
               cx="49.53363"
               cy="139.15285"
               rx="0.8700726"
               ry="0.87007272" />
            <ellipse
               style="fill:none;stroke:#000000;stroke-width:0.1;stroke-linecap:round;stroke-linejoin:round;stroke-miterlimit:4;stroke-dasharray:none"
               id="ellipse1041"
               cx="49.53363"
               cy="141.79872"
               rx="0.8700726"
               ry="0.87007272" />
            <ellipse
               style="fill:none;stroke:#000000;stroke-width:0.1;stroke-linecap:round;stroke-linejoin:round;stroke-miterlimit:4;stroke-dasharray:none"
               id="ellipse1051"
               cx="46.887798"
               cy="128.56934"
               rx="0.8700726"
               ry="0.87007272" />
            <ellipse
               style="fill:none;stroke:#000000;stroke-width:0.1;stroke-linecap:round;stroke-linejoin:round;stroke-miterlimit:4;stroke-dasharray:none"
               id="ellipse1053"
               cx="46.887798"
               cy="131.21521"
               rx="0.8700726"
               ry="0.87007272" />
            <ellipse
               style="fill:none;stroke:#000000;stroke-width:0.1;stroke-linecap:round;stroke-linejoin:round;stroke-miterlimit:4;stroke-dasharray:none"
               id="ellipse1055"
               cx="46.887798"
               cy="133.8611"
               rx="0.8700726"
               ry="0.87007272" />
            <ellipse
               style="fill:none;stroke:#000000;stroke-width:0.1;stroke-linecap:round;stroke-linejoin:round;stroke-miterlimit:4;stroke-dasharray:none"
               id="ellipse1057"
               cx="46.887798"
               cy="136.50696"
               rx="0.8700726"
               ry="0.87007272" />
            <ellipse
               style="fill:none;stroke:#000000;stroke-width:0.1;stroke-linecap:round;stroke-linejoin:round;stroke-miterlimit:4;stroke-dasharray:none"
               id="ellipse1059"
               cx="46.887798"
               cy="139.15285"
               rx="0.8700726"
               ry="0.87007272" />
            <ellipse
               style="fill:none;stroke:#000000;stroke-width:0.1;stroke-linecap:round;stroke-linejoin:round;stroke-miterlimit:4;stroke-dasharray:none"
               id="ellipse1061"
               cx="46.887798"
               cy="141.79872"
               rx="0.8700726"
               ry="0.87007272" />
            <ellipse
               style="fill:none;stroke:#000000;stroke-width:0.1;stroke-linecap:round;stroke-linejoin:round;stroke-miterlimit:4;stroke-dasharray:none"
               id="ellipse1067"
               cx="44.241962"
               cy="131.21521"
               rx="0.8700726"
               ry="0.87007272" />
            <ellipse
               style="fill:none;stroke:#000000;stroke-width:0.1;stroke-linecap:round;stroke-linejoin:round;stroke-miterlimit:4;stroke-dasharray:none"
               id="ellipse1069"
               cx="44.241962"
               cy="133.8611"
               rx="0.8700726"
               ry="0.87007272" />
            <ellipse
               style="fill:none;stroke:#000000;stroke-width:0.1;stroke-linecap:round;stroke-linejoin:round;stroke-miterlimit:4;stroke-dasharray:none"
               id="ellipse1071"
               cx="44.241962"
               cy="136.50696"
               rx="0.8700726"
               ry="0.87007272" />
            <ellipse
               style="fill:none;stroke:#000000;stroke-width:0.1;stroke-linecap:round;stroke-linejoin:round;stroke-miterlimit:4;stroke-dasharray:none"
               id="ellipse1073"
               cx="44.241962"
               cy="139.15285"
               rx="0.8700726"
               ry="0.87007272" />
            <ellipse
               style="fill:none;stroke:#000000;stroke-width:0.1;stroke-linecap:round;stroke-linejoin:round;stroke-miterlimit:4;stroke-dasharray:none"
               id="ellipse1079"
               cx="52.179462"
               cy="128.56934"
               rx="0.8700726"
               ry="0.87007272" />
            <ellipse
               style="fill:none;stroke:#000000;stroke-width:0.1;stroke-linecap:round;stroke-linejoin:round;stroke-miterlimit:4;stroke-dasharray:none"
               id="ellipse1081"
               cx="52.179462"
               cy="131.21521"
               rx="0.8700726"
               ry="0.87007272" />
            <ellipse
               style="fill:none;stroke:#000000;stroke-width:0.1;stroke-linecap:round;stroke-linejoin:round;stroke-miterlimit:4;stroke-dasharray:none"
               id="ellipse1083"
               cx="52.179462"
               cy="133.8611"
               rx="0.8700726"
               ry="0.87007272" />
            <ellipse
               style="fill:none;stroke:#000000;stroke-width:0.1;stroke-linecap:round;stroke-linejoin:round;stroke-miterlimit:4;stroke-dasharray:none"
               id="ellipse1085"
               cx="52.179462"
               cy="136.50696"
               rx="0.8700726"
               ry="0.87007272" />
            <ellipse
               style="fill:none;stroke:#000000;stroke-width:0.1;stroke-linecap:round;stroke-linejoin:round;stroke-miterlimit:4;stroke-dasharray:none"
               id="ellipse1087"
               cx="52.179462"
               cy="139.15285"
               rx="0.8700726"
               ry="0.87007272" />
            <ellipse
               style="fill:none;stroke:#000000;stroke-width:0.1;stroke-linecap:round;stroke-linejoin:round;stroke-miterlimit:4;stroke-dasharray:none"
               id="ellipse1089"
               cx="52.179462"
               cy="141.79872"
               rx="0.8700726"
               ry="0.87007272" />
            <ellipse
               style="fill:none;stroke:#000000;stroke-width:0.1;stroke-linecap:round;stroke-linejoin:round;stroke-miterlimit:4;stroke-dasharray:none"
               id="ellipse1095"
               cx="54.825298"
               cy="131.21521"
               rx="0.8700726"
               ry="0.87007272" />
            <ellipse
               style="fill:none;stroke:#000000;stroke-width:0.1;stroke-linecap:round;stroke-linejoin:round;stroke-miterlimit:4;stroke-dasharray:none"
               id="ellipse1097"
               cx="54.825298"
               cy="133.8611"
               rx="0.8700726"
               ry="0.87007272" />
            <ellipse
               style="fill:none;stroke:#000000;stroke-width:0.1;stroke-linecap:round;stroke-linejoin:round;stroke-miterlimit:4;stroke-dasharray:none"
               id="ellipse1099"
               cx="54.825298"
               cy="136.50696"
               rx="0.8700726"
               ry="0.87007272" />
            <ellipse
               style="fill:none;stroke:#000000;stroke-width:0.1;stroke-linecap:round;stroke-linejoin:round;stroke-miterlimit:4;stroke-dasharray:none"
               id="ellipse1101"
               cx="54.825298"
               cy="139.15285"
               rx="0.8700726"
               ry="0.87007272" />
          </g>
          <circle
             style="fill:none;stroke:#000000;stroke-width:0.1;stroke-miterlimit:4;stroke-dasharray:none"
             id="circle1137"
             cx="114.54716"
             cy="110.43715"
             r="1.8583801" />
          <circle
             style="fill:none;stroke:#000000;stroke-width:0.1;stroke-miterlimit:4;stroke-dasharray:none"
             id="circle1139"
             cx="36.230507"
             cy="110.43715"
             r="1.8583801" />
          <circle
             style="fill:none;stroke:#000000;stroke-width:0.1;stroke-miterlimit:4;stroke-dasharray:none"
             id="circle1141"
             cx="114.54716"
             cy="176.05382"
             r="1.8583801" />
          <circle
             style="fill:none;stroke:#000000;stroke-width:0.1;stroke-miterlimit:4;stroke-dasharray:none"
             id="circle1143"
             cx="36.759674"
             cy="176.05382"
             r="1.8583801" />
        </g>
      </g>
      <path
         id="box6175-base"
         style="fill:none;stroke:#000000;stroke-width:0.377953;stroke-linecap:butt;stroke-linejoin:miter"
         d="m 152.60156,-276.92773 v 11.33789 h -23.00781 v 17.0664 h -11.33789 v 36.02539 h 11.33789 v 17.06641 17.06641 h -11.33789 v 36.02343 h 11.33789 v 17.06641 17.06836 h -11.33789 v 36.023436 h 11.33789 v 17.066406 17.066407 h -11.33789 v 36.0234372 h 11.33789 V 15.041016 h 23.00781 v 11.33789 h 47.90625 v -11.33789 h 23.00781 23.00782 v 11.33789 h 47.90625 v -11.33789 h 23.00781 23.00781 v 11.33789 h 47.9043 v -11.33789 h 23.00781 23.00781 v 11.33789 h 47.90625 v -11.33789 h 23.00782 23.00781 v 11.33789 h 47.90625 v -11.33789 h 23.00781 V -2.0273438 h 11.33789 V -38.050781 h -11.33789 v -17.066407 -17.066406 h 11.33789 v -36.023436 h -11.33789 v -17.06836 -17.06641 h 11.33789 v -36.02343 h -11.33789 v -17.06641 -17.06641 h 11.33789 v -36.02539 h -11.33789 v -17.0664 h -23.00781 v -11.33789 h -47.90625 v 11.33789 H 505.2793 482.27148 v -11.33789 h -47.90625 v 11.33789 h -23.00781 -23.00781 v -11.33789 h -47.9043 v 11.33789 H 317.4375 294.42969 v -11.33789 h -47.90625 v 11.33789 h -23.00782 -23.00781 v -11.33789 z m 308.73828,199.767574 a 9.4488189,9.4488189 0 0 1 9.44922,9.449218 9.4488189,9.4488189 0 0 1 -9.44922,9.449219 9.4488189,9.4488189 0 0 1 -9.44922,-9.449219 9.4488189,9.4488189 0 0 1 9.44922,-9.449218 z"
         transform="scale(0.26458333)" />
    </g>
    <path
       style="fill:none;stroke:#000000;stroke-width:0.1;stroke-linecap:butt;stroke-linejoin:miter"
       id="box6992-longside1"
       d="m 42.100063,152.52683 v -3 h 3 6.337497 v 3 h 12.174991 v -3 h 6.337497 6.337497 v 3 h 12.174994 v -3 h 6.337494 6.337497 v 3 h 12.175 v -3 h 6.3375 6.3375 v 3 h 12.175 v -3 h 6.3375 6.3375 v 3 h 12.175 v -3 h 6.3375 3 v 3 4.93751 h -3 v 9.375 h 3 v 4.9375 3 h -3 -6.3375 v -3 h -12.175 v 3 h -6.3375 -6.3375 v -3 h -12.175 v 3 h -6.3375 -6.3375 v -3 h -12.175 v 3 h -6.337497 -6.337494 v -3 H 76.287545 v 3 h -6.337497 -6.337497 v -3 H 51.43756 v 3 h -6.337497 -3 v -3 -4.9375 h 3 v -9.375 h -3 v -4.93751" />
    <path
       style="fill:none;stroke:#000000;stroke-width:0.1;stroke-linecap:butt;stroke-linejoin:miter"
       id="box6992-longside2"
       d="m 42.100063,126.97265 v -3 h 3 6.337497 v 3 h 12.174991 v -3 h 6.337497 6.337497 v 3 h 12.174994 v -3 h 6.337494 6.337497 v 3 h 12.175 v -3 h 6.3375 6.3375 v 3 h 12.175 v -3 h 6.3375 6.3375 v 3 h 12.175 v -3 h 6.3375 3 v 3 4.9375 h -3 v 9.375 h 3 v 4.9375 3 h -3 -6.3375 v -3 h -12.175 v 3 h -6.3375 -6.3375 v -3 h -12.175 v 3 h -6.3375 -6.3375 v -3 h -12.175 v 3 h -6.337497 -6.337494 v -3 H 76.287545 v 3 h -6.337497 -6.337497 v -3 H 51.43756 v 3 h -6.337497 -3 v -3 -4.9375 h 3 v -9.375 h -3 v -4.9375" />
    <path
       style="fill:none;stroke:#000000;stroke-width:0.1;stroke-linecap:butt;stroke-linejoin:miter"
       id="box6992-endface2"
       d="m 182.22921,39.114369 h 3 4.6875 v -3 h 9.875 v 3 h 4.6875 3 v 4.76562 h -3 v 9.031251 h 3 v 4.76562 4.765619 h -3 v 9.03125 h 3 v 4.76562 4.765621 h -3 v 9.031246 h 3 v 4.765627 4.76562 h -3 v 9.031247 h 3 v 4.76563 h -3 -4.6875 v 3 h -9.875 v -3 h -4.6875 -3 v -4.76563 h 3 v -9.031247 h -3 v -4.76562 -4.765627 h 3 V 81.00497 h -3 v -4.765621 -4.76562 h 3 v -9.03125 h -3 V 57.67686 52.91124 h 3 v -9.031251 h -3 v -4.76562" />
    <path
       style="fill:none;stroke:#000000;stroke-width:0.1;stroke-linecap:butt;stroke-linejoin:miter"
       id="box6992-endface1"
       d="m 6.545811,39.489364 h 3.0000003 4.6874967 v -3 h 9.874994 v 3 h 4.687497 2.999997 v 4.76562 h -2.999997 v 9.03125 h 2.999997 v 4.76562 4.76562 h -2.999997 v 9.03125 h 2.999997 v 4.76562 4.765618 h -2.999997 v 9.031244 h 2.999997 v 4.765617 4.76562 h -2.999997 v 9.031247 h 2.999997 v 4.76562 h -2.999997 -4.687497 v 3 h -9.874994 v -3 H 9.5458113 6.545811 v -4.76562 H 9.5458113 V 99.942443 H 6.545811 v -4.76562 -4.765617 H 9.5458113 V 81.379962 H 6.545811 v -4.765618 -4.76562 h 3.0000003 v -9.03125 H 6.545811 v -4.76562 -4.76562 h 3.0000003 v -9.03125 H 6.545811 v -4.76562" />
  </g>
</svg>
